<svg enable-background="new -94.027 225.5404 4157.0542 2054.9192" viewBox="-94.027 225.5404 4157.0542 2054.9192" xmlns="http://www.w3.org/2000/svg"><path d="m3953.6895 1576.6245c-6.5701 1.2632-13.1523 2.4675-19.7271 3.7065-14.3745 2.7089-28.749 5.4178-43.1233 8.1267-1.4021.2642-11.5393 15.4033-14.6936 14.6713-6.2671-1.4543-14.9932.7052-21.3015 1.1289-15.1697 1.0187-30.3396 2.0022-45.5195 2.853-18.4116 1.0321-36.8564 1.6478-55.2986 1.3584-9.4175-.1478-18.8323-.528-28.2271-1.2031-3.4089-.2451-10.5151.5028-13.4556-1.17-3.4851-1.9828-1.6235-3.5919-3.1929-6.8929-1.71-9.2097-3.0398-18.5294-3.3799-27.8792-.155-4.1768-46.8975-5.4482-51.5215-5.7396-2.3181-.1461-8.592.6321-10.5493-.6508-4.4363-2.9077-3.6494-20.8839-4.2527-26.5634-2.1948-20.6621-4.3896-41.3242-6.5845-61.9865-5.6624-53.3082-11.3247-106.6166-16.9873-159.9249-3.7749-35.5393-7.55-71.0786-11.325-106.6179-.9219-8.6782-1.8438-17.3564-2.7654-26.0347-.7471-7.0328.5234-14.2444-5.9131-18.0173-14.2009-8.3241-30.2256-15.3435-45.0916-22.5159-12.9502-7.0699-26.4199-13.22-39.1499-20.65-8.3198-4.95-18.1001 1.04-27 .61-7.8594 2.0199-16.0391 2.17-23.8086 4.3497-1.668.4679-5.2004-.506-6.8977-.5663.8521.0303-1.2393-11.2804-1.6426-12.2908-1.9314-4.8385-4.3979-5.9581-9.4749-6.6068-10.4841-1.3394-20.8333 3.8679-31.2698 4.3298-.3928 2.4304 1.665 22.5566-.7068 22.8844-23.4497 3.24-46.6997 7.8999-70.1499 10.9199-6.1401 1.9501-12.5498 2.1801-18.8296 3.1801-3.5205.4-6.5605 1.21-9.8301 2.1799-3.1802-.1699-6.79-2.24-9.3105.6101 8.9719 77.74 14.0847 156.1849 21.176 234.1372 2.4792 25.5042 4.9585 51.0083 7.4375 76.5125.6106 6.2806 1.1519 14.0092-3.5002 19.0636-5.9187 6.4299-16.2332 5.9386-24.5393 6.9088-2.5212.2944-5.2773.7056-6.9714 2.5956-1.0898 1.2158-1.6064 2.9249-2.9075 3.9116-1.0542.7997-2.4377.9808-3.752 1.135-5.1543.6051-10.3088 1.2101-15.4631 1.8151-3.406.3998-27.9646 5.2313-34.6899 5.8306-.4497.04-1.3398.12-1.7798.16l-.0796-.76c-.4805-2.48-.8403-4.92-1.0801-7.3101 0 0-.7803.04-.7803.0396-6.5811-81.79-13.3342-163.7656-20.1621-245.6144-6.9187-82.9382-13.8376-165.8765-20.7563-248.8146-1.1763-14.0992-2.3523-28.1984-3.5286-42.2982-1.0823-12.9737-3.9348-25.4113-3.4331-38.5023-3.4768-.1461-6.9539-.2922-10.4307-.4384-.6416-15.6278-1.5999-31.2426-2.8735-46.8317-.637-7.7945-1.3528-15.5826-2.1475-23.3626-.2346-2.2983.2292-9.9986-1.3271-11.6179-1.6277-1.6934-7.593-1.2009-9.9031-1.4379-33.1514-3.4017-67.3105-9.2915-100.4878-9.2915 0 0-.5801.12-.5801.12-79.9624 16.3303-159.7275 33.8648-239.6013 50.6678-14.124 2.9713-28.248 5.9425-42.3718 8.9138-7.2627 1.5278-14.5251 3.0556-21.7876 4.5834-18.4182 3.8746-35.656 15.3682-52.687 23.7391-12.5972 6.1917-25.1946 12.3832-37.7917 18.5749-6.2949 3.0941-12.6038 6.1616-18.8855 9.2825-8.707 4.3256-7.3003 11.4737-6.7559 19.9908.885 13.8464 1.6023 27.7056 2.4033 41.5571 1.6023 27.7062 3.2043 55.4125 4.8066 83.119 3.2043 55.4126 6.4089 110.8252 9.6133 166.2378 6.4089 110.8252 12.8179 221.6504 19.2268 332.4756 2.0737 35.86 4.1475 71.7198 6.2212 107.5797 1.9941 34.4843 6.9846 70.3018 6.1692 104.6886.0605 1.6499.1904 4.96.25 6.6099h.6406c-.6406 2.22 2.2998 7.9202-.8506 8-5.4199.4402-10.8994.73-16.0698 2.47 0 0-.73.04-.7336.0403-15.4954.8441-16.6492-55.7864-17.241-64.5129-1.8765-27.6708-3.73-55.3431-5.5603-83.017-3.6609-55.3477-7.2295-110.7014-10.7056-166.061-6.9524-110.7191-13.5356-221.4614-19.7493-332.2245-2.4495-43.6633-4.8416-87.3298-7.1763-130.9995-1.1526-21.5583-2.2913-43.1176-3.4158-64.6774-1.0547-20.2187-8.698-61.3777-8.658-63.8978l-.6904-.0601c.0605-1.76-6.6226-21.9584-10.3518-29.9189-3.709-7.9173-2.0349-21.4518-2.5288-30.3333-1.2583-22.6374-2.5168-45.2748-3.7754-67.9122-2.4863-44.7227-10.7529-134.6194-12.3997-134.8451 2.9109.3989-4.4788-40.4583-5.6658-43.9001-4.4426-12.883-9.7329-25.218-24.0972-28.8859-8.2061-2.0955-16.8203-1.4402-25.2893-1.3616-9.8674.0917-32.3755 1.6909-39.1497-5.7219-3.5156-3.8471-4.9277-13.1209-7.3267-17.9704-2.8-5.6605-6.6145-10.1778-10.0056-15.3906-1.3198-2.0299-2.8096-3.92-4.1499-5.9-.5601-.22-1.6699-.6699-2.2202-.8899-1.3799-1.6901-2.7998-3.36-3.8799-5.23-7.04-12.189-31.6614-21.748-44.8293-23.9196-17.5359-2.8919-36.2302 1.2229-50.7383 11.5458-9.5188 6.773-17.1121 15.8673-25.8992 23.5661-24.134 21.1454-58.8762 9.822-87.7471 6.3083-20.428-2.4861-40.8069-5.376-61.1208-8.6674-10.157-1.6457-20.2976-3.3917-30.4199-5.2379-6.3645-1.1608-19.0288-6.5491-25.3953-4.3454-9.6802 3.4601-16.9497 11.38-21.8003 20.2302-25.5193 42.9442-22.2454 101.3805-21.8037 149.6132.4907 53.5998 4.7039 107.0717 6.2085 160.6396.6121 21.793.7827 43.6068.0667 65.3995-.3579 10.8918-.9055 21.7858-1.7871 32.6489-.9932 12.2388-2.3 23.1191-1.905 35.6699.4365 13.8729.8733 27.7458 1.3098 41.6188.8733 27.746 1.7466 55.4918 2.6201 83.2377 1.7466 55.4918 3.4932 110.9836 5.2397 166.4753 3.4932 110.9836 6.9866 221.9672 10.4797 332.9515.4829 18.9531.3479 37.8315 1.395 56.6387-12.5002 5.1262-25.4597 9.0026-38.4238 12.7557-8.8635 2.5662-26.0497 2.3341-30.7858 11.9296-3.0471 6.1738-.4388 16.9745-.2391 23.5276.3383 11.0974.6766 22.1948 1.0149 33.2922.6934 22.7495 1.3868 45.499 2.0802 68.2485.3383 11.0973.6765 22.1946 1.0148 33.2919.2616 8.5822 3.76 25.3699.0491 32.5485-1.7714-2.9321-1.9624-7.1382-2.0907-10.6898-.5005-13.8473-1.0067-27.6943-1.51-41.5414-1.0067-27.6943-2.0134-55.3885-3.0201-83.0828-2.0133-55.3885-4.0267-110.7771-6.04-166.1655-2.3794-92.7924-5.9227-185.767-10.293-278.4678l.1802-.88c.4794.03 1.4175.0699 1.8979.0999 1.453.0903 2.8555.1953 4.2826.0146.4857-3.5469.5151-7.363.7213-11.0104-.7281-4.1595.7814-13.3499-1.1174-16.7224-2.4032-4.2684-9.9761-4.1017-14.9307-5.094-11.7698-2.3572-23.423-6.9152-35.3668-7.0076-11.2648-.0873-21.8018 2.2076-32.4753 5.5739-7.4033 2.335-13.4854 1.2926-13.9724 9.8628-.2988 5.2596-.4231 10.7006-.0583 15.9596.5085 7.3313-.298 5.6925 6.2091 7.4336 14.0898 3.77 28.5503 5.9401 42.75 9.3 1.7803-.03 5.3501-.0801 7.1401-.1 3.5911-.6683 7.1622-1.5756 10.713-2.5626 8.312-2.3108 5.3994 23.5789 5.5997 29.8616.4423 13.8711.8845 27.7423 1.3269 41.6134.8845 27.7422 1.769 55.4845 2.6537 83.2267 1.769 55.4845 3.5382 110.969 5.3074 166.4534 2.0741 40.4438 2.5837 81.033 3.8744 121.5104.6545 20.5292 1.3092 41.0582 1.9637 61.5874.3185 9.9872.6368 19.9744.9553 29.9614.3038 9.5293 4.2035 22.038-9.674 17.5084-.4102-.0901-1.2202-.27-1.6304-.3601-7.23-.22-14.46-.8-21.5-2.5-4.4497-1.6399-8.1597 1.6899-12.4697 1.5901-1.4702.0601-3.4399-.4302-3.3403 1.6799.2603 4.73.0801 9.4199.21 14.25l.9502.04c.0703 1.21.1802 2.4399.3501 3.7-.29 3.26-.2798 6.8801-.3301 10.27.0103.5.0298 1.5.0503 1.99-.2305 2.8999-.0903 6.1799-.2603 9.23.0698.6899.1997 2.0701.27 2.77l.9697.02c-.71 4.28 1.9404 10.6199-1.6899 13.4299-1.4399-.21-2.8501-.4299-4.23-.6499-.54-5.3801.5903-10.96-.8798-16.1243.0309-5.3856.8651-5.5571-3.6726-7.259-4.1941-1.5729-10.4086-1.1301-14.8843-1.6166.3258-1.4655.6428-3.0448.0569-4.4269-.5858-1.3822-2.485-2.2853-3.6436-1.3306-1.243 1.024-.6455 3.0106.052 4.4623-4.3561 1.4196-9.394 2.006-13.3087-.3744-3.9148-2.3802-5.4738-8.6588-1.9604-11.5996 1.2887 1.3407 3.5083 1.6672 5.1284.7543 1.6378-2.7704-2.071-6.3204-5.1818-5.4952s-4.8602 4.2256-5.236 7.4219c-.3757 3.1964.2277 6.4408-.0682 9.6455 0 .7231-28.254 2.0238-31.3717 2.1025-.1899-1.4099-.3101-2.79-.3701-4.1499.0303-.45.1001-1.3601.1299-1.8101 1.8799-5.23-5.9897-3.74-6.8301.04-.7695 1.23-1.4497 2.53-2.1396 3.8201l-.8203.1699c-.1793.3293-.5482.9873-.7289 1.318-2.9178 5.3445-3.3937-2.5499-3.4641-4.5555-.1902-5.4099-.2473-10.828-.3708-16.24-.2378-10.4103-.4755-20.8206-.7131-31.2308-.4755-20.8206-.9509-41.6411-1.4263-62.4617-.9509-41.6412-1.9017-83.2823-2.8527-124.9235-.7251-26.6465-1.2172-53.3014-1.8257-79.9508-.5925-25.9487-2.4214-52.2169-1.5681-78.1558l-.9399-.11c-3.4199-.6-6.6104-.7-9.9805-.95-5.1396.42-10.4097.3199-15.4497-.53-1.54-.1699-3.0503-.3099-4.5503-.4199-2.9795-.5801-5.5796-.7301-8.4497-.6201-1.6299-.1-4.9102-.3099-6.54-.4199-3.0601.1699-6.3101.0599-9.23.24v-1.02c-3.1499-.22-5.9697-.01-8.9697-.27-1.7803.3101-3.5605.5601-5.3203.6801-.4199-.12-1.2798-.34-1.71-.4601l.0801-.7999c-2.8203-.04-5.5801 0-8.2998.09-1.8701-.1799-3.7202-.3199-5.5503-.46-4.8198.34-9.7603.3199-14.46-.54-.4399-.0599-1.3398-.16-1.7798-.21-.0303-4.05-.0205-8.05.0098-12.02l-.9697-.01c-.0801-4.03-.1904-8.01-.3301-11.95.3599-2.12.5498-4.24.6196-6.3501l-.2998-.75-.71-.0599-.4199-.8c-4.0103-.09-7.98-.1-11.8999-.0399-1.6201-.1001-3.2002-.1801-4.7705-.29-.8599.13-2.5898.39-3.4497.52-1.5-.28-4.4897-.8201-5.9897-1.09-3.3003-.14-6.7803-.39-9.9502-.9601l-.7998-.1599c-.0303-1.9901-.0503-3.9501-.0605-5.9.0503-3.4301-.0098-7.04.1401-10.36-.02-.4501-.0601-1.3301-.0898-1.77 0-3.02-.1699-6.23-.0103-9.12-.0698-2.7101-.0796-5.37-.0098-7.99l-.9697.1699-.9702.15c-2.0503.05-2.0801-1.83-2.4102-3.3099-3.1401 1.95-.25 6.3999-1.3501 9.24-.4199-1.13-.8496-2.2201-1.2798-3.29-.4502.09-1.3501.28-1.8003.37-.4897.14-1.4795.4-1.9697.54-1.73-.9401-3.4697-1.86-4.2197-3.79l-.4404-.77c-1.9097-.5699-2.1396-2.77-2.7598-4.33 2.0298.6 3.8198 1.96 6.02 2.13 1-.5601 2.0898-.89 3.2598-1 .5703-1.0901 1.0801-2.2101 1.6499-3.29.8003-2.1899 2.4502-4.45 5.1001-3.76.1304.8201.3701 2.4501.4902 3.26.3198-2.51.6099-4.98.8799-7.39-4.5298-3.58-8.8599-7.4299-12.4199-11.9399-.4199.3199-1.2798.96-1.7002 1.2799-3.9697 4.03-7.6499 8.3401-11.3398 12.63-.2202.28-.6602.8201-.8901 1.0901.0303 4.35.0601 8.6799.1802 13.1l-.02 1v2.89l.0098 1.08c.0103.73.02 2.1901.0303 2.92-.0303 1.7899-.0303 3.6799-.8604 5.35-1.3198.86-2.6597 1.67-3.9795 2.49-1.6904.9-3.8203.9401-5.2803 2.16-.29.2899-.8799.88-1.1699 1.1699l-.8203-.1499c-.1597-3.0901.04-5.8401-.0396-8.79l-.7603-.4c-1.1001-.66-2.2002-1.26-3.2598-1.85.1201-.42.3799-1.25.5098-1.67 1.29-.09 2.5103-.63 2.9399-1.96.1499-.42.4502-1.26.6001-1.6899-.4297-.0701-1.3101-.2201-1.7402-.3-1.8799-.27-3.7295-.49-5.5298-.97l-.9497-.15-.9204-.04c.0903.41.27 1.2101.3604 1.62.9097 1.42 1.8599 2.8401 2.8896 4.23-2.77.01-8.3101.03-11.0898.04-2.4199.3-2.9702-2.85-5.1997-3.15.2798-.5.8398-1.51 1.1299-2.02 1.0898-.73 2.2798-1.3099 3.46-1.9399-4.4199-.9301-8.9102-.9401-13.3203-.89-.5195.0601-1.5596.17-2.0801.22-.2896-.27-.8696-.8099-1.1499-1.08.1104-2.14.2803-4.26.4604-6.37-.3301-.45-.9702-1.35-1.29-1.8-1.8301-1.9299-4.46-2.09-6.9302-2.1899-.8403-.74-1.79-1.16-2.8403-1.25-1.4697.14-2.8896.4199-4.2695.8199-2.0703-.24-4.1304-.33-6.1699-.36.0996-1.79.2998-5.37.3999-7.16-.25-.49-.73-1.47-.9702-1.96l-.3501-.71c-.2798-3.23.8999-6.4401-.6997-9.29l-.3101-.71c-.8101-3.9601 1.4199-8.64-.73-12.2001-.5801-3.3899.79-7-1.0503-10.01-.0098-3.7599-.3296-7.4399-.98-11.0499l-.1201-.78c-.8496-3.74-1.1196-7.48-.8296-11.22l-.1099-.75c-.2803-.28-.8403-.83-1.1201-1.11.0698-2.8101.1997-5.5701.4097-8.27-.1196-.39-.3599-1.17-.4697-1.5601-.27-.48-.79-1.4299-1.0503-1.9099.0703-2.8201.1304-5.5901.1802-8.3301-.8599-3.6-1.2202-7.21-1.0801-10.83l-.21-.87c-1.0298-2.96-.79-6.33-.7598-9.3-.9302-3.75-1.1499-7.51-.6499-11.2799l-.29-.6801c-1.6001-2.59-3.9004-4.63-3.29-8.12l1.0698.01c3.0498-1.52 2.4302-5.52 3.9497-8.17.3901-1.26.9102-2.4399 1.4902-3.59.2598-1.66-.1201-2.66-1.1299-3-1.6201-.49-4.0898.4399-5.0801-1.11-.2002-.3101-.6001-.9301-.7998-1.25l-.8701.26c-.1499-2.0901-1.52-3.3301-3.1802-4.3.9702-1.35 2.3804-2.33 3.3101-3.73-.1401-1.64 1.3398-4.45-1.4502-4.08-2.5195-.6901.1704-2.5601 1.7603-2.2001-1.46-2.28 1.7603-7.2-1.9199-6.7899-3.8198.5.0698-1.67 1.1099-2.8501-1.4697-1.4199-3.2197-3.8999.3599-2.97.9302-1.0699.0801-2.12-.48-3.08-2.71.6-1.8496-2.0601.0103-2.47-.9302-.91-1.9702-1.6901-2.8804-2.54 1-.42 2.0503-.73 3.1504-.9401.7998-.76.8101-1.5299.02-2.2999-.8301.03-2.4902.09-3.3203.12.79-1.8101 2.4702-2.98 3.5903-4.5601-4.4902.49.4199-2.2899-1.5903-4.13-1.5098-1.5699.98-2.88 1.5-4.3199-.1597-1.28-.2798-2.54-.3599-3.78-.75-.0699-2.23-.2-2.98-.27-.5898-2.0499 1.5698-2.4299 2.9702-3.08 0-1.5701-.04-3.12-.1504-4.64-1.2998-.45-2.5801-.9-3.8198-1.36.9302-.97 2-1.79 2.98-2.7-3.5098-2.2101.4199-5.3301.96-8.1901l.0103-.8099c-1.4102-.1901-3.6001-.02-3.8501-1.8301.8198-.5499 1.6602-1.0599 2.5298-1.54-.7998-1.75-3.0498-4.59.6401-3.49.3701-1.88.4302-3.83.2402-5.7-3.21-1.8-2.8203-5.8101-3.7202-8.89-1.6499.8101-1.8501 2.72-2.5103 4.25.0103 2.47-1.3198 4.46-2.7798 6.33-.29 2.4301 3.9897 5.5801.3198 6.6001-1.5.58 1.1201 1.89.46 2.9299-1.8799 3.4601 1.2305 7.24.0503 10.92.1899 1.08.3398 2.1799.4497 3.3099.8003 2.01 1.4805 4.2001 0 6.12.1104 3.0701-2.9497 8.92 1.3403 9.0701l.8799.15-.1201 4.45c-.5298.1-1.6001.3101-2.1299.42-.4497 2.2999 2.2397 4.15-.5298 5.87 2.5898 4.11.8398 9.33 1.1299 13.95 2.3301 1 1.6099 3.27-.48 4.03 1.2197 1.89-.1401 4.55 2 5.98-2.0601 1.72-1.3003 4.5601-1.6201 6.92 2.8101 1.98-1.5601 3.39-.0498 6.37-.2603.21-.79.65-1.0601.87-.3301.15-.98.46-1.3101.61-7.25-3.09-4.4502 1.97-3.9102 4.45-.04.51-.1099 1.52-.1499 2.03 1.02 2.45 1.9697 4.98 2.3398 7.65l.7603-.0601c4.3901-1.2999 4.1401 5.12 2.27 7.38-2.2603.05-3.9199-1.21-5.25-2.85-1.5703-1.42-2.8203-3.28-4.6899-4.25-3.73 4.3-7.1802 8.84-11.02 13.05-.98 2.14-1.3203 4.48-1.2202 6.85l.8501-.33c.79-.5 1.6099-.52 2.46-.05 1.02.3099 2.04.66 3.0801 1.05-.2402 1.63-.7202 4.88-.9502 6.5099.1299 2.7201-4.96 4.4401-4.4697.89l-.9302-.12c-.1201 3.2201.0103 6.7001.0103 10.02l.96.0701c.5195.0199 1.5698.0699 2.0898.1.3301-.34.9902-1.02 1.3198-1.36-.4897-1.4601.0503-2.0601 1.6201-1.8101.46-.0499 1.3901-.14 1.8501-.1899 1.7197.3199 3.4399.7799 5.1797 1.21l.9302.11c-.0601 1.63.3501 3.15 1.98 3.88l.23.58c.9502 2.28 2.96 8.0601-1.0898 7.4501-.77.1-2.3003.3099-3.0601.4199-.77-1.84-1.3599-3.72-2.1099-5.5299l-1.0303-.0901c-1.23.37-2.02 1.3101-2.77 2.28-1.0996 1.51-1.6099 4.3-4.0098 3.87-.4902.04-1.4702.11-1.96.15-.2002 1.35-.1802 2.83-.9902 4.04-1.3198 2.38-2.6201 4.77-3.9697 7.14l-.3203.6399.0601 1.02c-.0801 2.87.1304 6.04.1001 9.04.0303 4.71-.04 9.37.0698 14.15.02 1.66.0601 4.98.0703 6.64-.2002 7.75-.1802 15.5399-.04 23.34-.23.25-.71.76-.9399 1.02-.2202.25-.6602.75-.8799 1-2.1201.14-3.75 1.52-5.4805 2.5699.1196 1.823.2451 3.6769.3667 5.5374.001.3088.0161.6262.0635.9626.0601 1.86-1.7998 2.35-3.1802 2.9601-2.6797 1.22-5.1299 3.1399-8.0596 3.6699-.3501-5.3099.7397-10.99-.8301-16.02-.3101-.47-.9199-1.4199-1.23-1.89-3.8501-3.1899-7.2104-6.85-10.8999-10.1499-.4805.0699-1.4404.1899-1.9204.26-3.8999 4.45-7.0796 9.5199-11.2798 13.73l-.8604.22c.0103 5.73-.0396 11.5-.2695 17.3.0801.4299.25 1.2899.3301 1.72-.0605 1.75-.1904 5.25-.2603 7-.46.3199-1.3901.97-1.8501 1.29-.77-1.4901-1.1001-3.4501-3.0698-3.64-.2402.96-.4502 1.95-.6099 2.96-.2603.59-.7803 1.77-1.04 2.36.1499.5.4297 1.49.5698 1.99.4702 3.03.1499 5.9.3599 9.1-.5.3401-1.5 1.02-2 1.36-1.3896.8401-2.6997 1.8-4.0601 2.6801-.3252-.0469-.6206-.0621-.9038-.0638-.7231-.0524-1.5649-.1156-2.0659-.1561.4199-3.5701.2197-7.17.6699-10.72-.5801-1.17-1.1001-2.3201-1.6699-3.42-.5103.37-1.52 1.11-2.02 1.48-1.0703.84-2.52.77-3.7603 1-3.6499-.88-6.0601 1.28-7.4497 4.54l-.7603.37c-.5498 2.4399 1.5303 6.9299-2.0601 7.08l-.2998-.9c.04-1.73.0898-3.4199.0801-5.1-.3999-2.47-.6899-4.9-.8604-7.2999 0-.4801-.0098-1.4401-.0195-1.92-3.8901-3.47-7.7202-7-11.1001-10.9301-.6899-.01-2.0601-.0499-2.7402-.0699-2.0698 2.89-4.3398 5.63-6.71 8.28-1.02 1.95-2.6401 3.45-4.3696 4.7799-.0605 1.5901-.0605 3.2101-.0303 4.8501-.0898 2.61-.0898 5.2799-.0098 7.99.0098.73.04 2.1899.0596 2.9199-.0698 2.6901-.0801 5.4301-.0298 8.2201-.1401 3.21-.0698 6.7-.04 10.01 0 2.0199.1099 4.0499.2397 6.11l-.3599.6799-.8198.24c-1.96 1.11-3.9702 2.12-5.9302 3.2001-9.3101 5.01-18.9697 9.34-28.0698 14.73-.2998.21-.8999.61-1.2002.8199.29 13.14.1904 26.29.02 39.4601.3999 10.22-.04 20.4399.1499 30.7-.0195 25.66-.0298 51.33 0 77h.9805c.0298 6.66-.0703 13.29.0698 20-.1201 4.9301-.04 10-.0698 15 .0498 10.3199-.0601 20.64.0195 31-.04 12.3199-.04 24.65 0 37-.0796 6.29.0103 12.65-.0298 19 .1401 3.11-.1899 5.66-.0298 8.96-3.9805.03-7.9302.02-11.8403-.0499l-.8999-.11c-4.46-.01-8.8301.1899-13.21.2l-.0098-1.03c-3.8701-.34-7.5601-.03-11.0903.9301-.2998.21-.8999.65-1.1997.87-2.8804 1.1-5.8301 2.02-8.5703 3.45-6.2798.91-2.2598-7.8099-2.2798-11.3099l1.0898.01c.48.01 1.4399.0199 1.9199.0299.1499-3.5399.6304-6.9099-.4897-10.23l-1.0503.02-1.0098-.04c-7.1499-.86-14.5-1.36-21.5698-.0199-.4102.08-1.2305.2599-1.6401.34-.8599.0499-2.5698.13-3.4302.1799l.0303.7101c.2598 3.0399.1099 5.85.3096 9.0599l.8101.3401c.4902.2699 1.48.8099 1.9702 1.08.1499 5.5499.75 11.34-.46 16.89-3.5601 1.73-7.8101 2.5601-10.3398 5.8401-.8403.8298-1.9902 1.25-2.9805 1.8599l-.96.1599c-.6699 13.6001 1.1104 27.6802-.9097 41.02-.2402.3201-.7202.9502-.96 1.27l.1797.73c-1.0298 1.3901-2.3398 2.8201-4.1997 2.8901-1.1001 1.3-2.21 2.5898-3.2402 3.97-1.71.02-5.1396.05-6.8501.0701l-.0601.73c-2.6299.79-5.1597 2.0999-7.9399 2.2-.4399-3.47.8101-7.05-.98-10.1401-.1563-5.9207.4641-12.1359-.0439-17.9415-1.4548-.0187-2.8695.1692-4.327.3118-.469-5.2041 1.3102-10.3065 2.5573-15.3806 1.2421-5.0541 1.1511-9.1643-.0286-14.1522-1.2826-5.4233-1.2537-10.5614-1.256-16.3079-.0054-13.1865-.0431-26.3734.0983-39.5594-.48-.23-1.4497-.7-1.9302-.9299-20.554-.3014-40.7927-3.3367-61.3464-6.0554-5.236-.6926-13.6301-2.098-18.26 1.3724-5.0463 3.7825-2.563 14.6409-2.563 20.7629.0098.75.0195 2.25.0298 3 .02 11.66-.1899 23.35.0898 35.04-6.0698-.0901-12.0898-.04-18.1099-.0601v-.97c-5.6699-.0701-11.3301.03-16.9502-.05-.21-9.13-.1299-18.24.2305-27.3199-.3403-.15-1.0103-.4501-1.3501-.6-.7402-.02-2.2002-.0701-2.9302-.1001-.0303 9.3301.04 18.6801-.0498 28.05l-.9502.05c-1.6699.03-3.3398.01-4.98-.0601-.0601-7.66-.0898-15.29.1201-22.89-.2402-.3199-.7202-.98-.96-1.3099-.7002-.91-1.5103-.91-2.4302.01l-.8599.48c.0298 5.14.21 10.4299.0601 15.64-.5103.36-1.5303 1.0699-2.0503 1.4199-.23-1.5699-.71-4.72-.9497-6.2899.0298-4.4401.1196-8.91.2798-13.25-.2998-.4501-.8999-1.36-1.1997-1.8101-1.2603-1.4399-2.4902-2.88-3.8301-4.1899-2.0503 1.0499-4.1304 2.0399-6.1304 3.1699-8.6956-.0656-17.3458-.0186-26.0398.1964.3707-2.0049-1.9449-3.6383-3.979-3.499s-3.7889 1.3931-5.5614 2.4008c-5.7285 3.2572-12.7357 4.1895-19.1166 2.5436-.2625-3.327-4.4257-4.7177-7.7628-4.6815-3.3373.0361-7.1592.5128-9.5552-1.8107-5.6184 1.4246-4.2437-2.6018-4.1898-7.0995.0645-5.3961.1152-10.7925.1729-16.1886.1107-10.3773.2216-20.7546.3323-31.132.2216-20.7545.4431-41.5092.6647-62.2638.4431-41.5093.8864-83.0184 1.3295-124.5277.1196-11.2064.2393-22.413.3589-33.6194.0559-5.245 3.3804-24.4685-.7332-28.2485-.5103-.23-1.54-.6901-2.0503-.9301-3.3799-.2-6.5601-.0599-9.8701-.13-.02-.77-.0698-2.3099-.0898-3.08-1.0297-.3-2.0599-.5601-3.0696-.8-2.7766-.6599-.2363-21.0673-1.0375-23.8424-1.5201-5.2656-3.1189-4.1876-8.6134-4.4407-3.1348-.1444-6.5549.0756-9.6453-.4506-4.9417-.8412-3.9417.2628-4.5284-4.4877-.6284-5.0876-1.8062-15.2465-.3146-20.0938.4431-1.9919 1.9607-5.3036-.1069-6.8915-2.1727 3.749-8.2084 4.3682-11.097 1.1385-2.1024 2.0289-5.5632 2.4774-8.1135 1.0515 1.2665-1.2794 2.533-2.559 3.7994-3.8385-.2305.2329-4.4323.2974-5.5179 1.0692-.6194-.6005-.5889-1.2037-.5453-2.0542-.29-5.51.1001-10.91-.4702-16.3502-.8184-5.4849-50.5264-4.6556-56.5793-4.955-.0701-3.605-.1401-7.2098-.2102-10.8148-1.3368-.0634-2.6735-.1267-4.0103-.1901.011 3.6381.022 7.2761.0331 10.9142-7.048-.2014-14.096-.4028-21.144-.6042-1.6421-.0469-3.4438-.1567-4.6388-1.2839-2.2466-2.1194-.7458-5.7893.3641-8.6715 1.1099-2.8823.6281-7.4186-2.4603-7.4562-.0214 5.3872-.0428 10.7745-.0643 16.1617-5.7156.5377-11.5328-.0253-17.0392-1.6489 1.6281-1.2578 1.8121-3.9846.3679-5.4498-1.4443-1.4651-4.1735-1.3202-5.4545.2897.4118 1.746.8236 3.4918 1.2354 5.2378-7.9045-.2474-15.469 3.1444-21.0095 8.6913-.2598.26-.77.77-1.0298 1.03-4.8604 4.45-10.02 8.5599-15.0103 12.87-.4697.0699-1.4199.21-1.8896.29-.8301 4.12 1.3198 9.48-2.2402 12.7599-4.6899 4.3401-9.8101 8.14-14.7998 12.12-.2603.2301-.79.6901-1.0503.91-1.6201-.0699-3.23-.14-4.8301-.08.1802 2.22.3901 4.5.6401 6.83l-.0898.92c-.6099 3.72-.8599 7.5-.7603 11.35-6.5596 5.42-13.5298 10.3-20.0098 15.8199-.29.4701-.8901 1.42-1.1802 1.89-1.5098 4.49-.7798 9.61-.6797 14.39-2.4399 2.98-5.9702 4.77-9.0703 6.97-2.1299 2.51-4.8901 4.3501-7.2197 6.66-.4502.0801-1.3403.25-1.79.34-.1401 6.2301-.1201 12.53-.0801 18.8201-.0601 1.5699-.1299 3.16-.23 4.77-2.4776 39.8502-1.7943 80.3463-2.7656 120.33-1.0081 41.499-2.0161 82.998-3.0242 124.4971-.5141 21.1642-1.0282 42.3284-1.5423 63.4926.0267-1.0988-6.9928 2.9849-7.304 2.8148-1.9094-1.0432-.3935-6.9515-.3832-8.6072.0645-10.3912.1407-20.7823.2332-31.1735.185-20.782.4291-41.5635.7324-62.3442.6066-41.5613 1.4496-83.1191 2.5291-124.6709.64-24.6351 2.1039-49.4253 1.6846-74.0187 0 0-.9702-.0499-.9717-.0499-2.1588-.0084-5.485.4802-7.4927-.3616-1.0656-.4468-1.1412-2.7534-2.6431-3.4984-4.1981-2.0825-12.1296-1.5067-16.7972-1.8975-9.6609-.8088-19.3186-1.0297-29.0087-.9753-6.3335.0355-6.0277.0331-6.0685-6.301-.0314-4.8755.5363-9.9525.2514-14.7963-.0796-1.4299-.1597-2.85-.2197-4.23-.0098-5.33-.04-10.72 0-15.99h.9902c-.309 0 .5233-15.192-.0942-16.6228-2.1434-4.9658-9.0651-3.2651-14.5134-3.5559-13.2197-.7054-26.4395-1.411-39.6592-2.1165-26.4395-1.411-52.8789-2.822-79.3184-4.233-4.9553-.2644-10.1368-.809-14.27 2.1345-4.1942 2.9901-5.6466 8.9482-10.8649 10.4006-6.5906 1.8345-16.9386-.5934-23.8055-.8682-16.8242-.6735-33.6485-1.3469-50.4728-2.0204l-.7803-12.3296c-6.2504-2.1837-22.2724 1.8456-24.5153-5.0736l.1477-22.757s-14.0988-2.3313-18.4625-2.5713c-7.6991-.4233-15.3981-.8466-23.0971-1.2699-3.7354-.2053-7.5643-.4-11.1377.707-5.191 1.6082-8.1189 6.9657-11.2667 11.0259-1.6299 2.41-.52 6.0701-1.1201 8.9301-.8296 4.96-.8599 10.12-.7397 15.1799-.0103 4.36.0103 8.8201.1602 13.27-3.2002-.25-6.3301-.3199-9.5-.28 0 0-.9656.1892-.9702.1901-9.8694 1.9333-19.0758 14.335-22.1533 24.1658-2.5623 8.1849-2.9207 16.8726-3.2594 25.4425-3.2293 81.6899-6.4586 163.3798-9.6878 245.0696-.315 7.9677-.7821 16.4139-5.3044 22.9813-2.7574 4.0045-6.8167 6.9648-9.632 10.929-4.0479 5.6998-2.3154 13.7544-2.6011 20.2883-.4225 9.6626-1.601 19.2917-3.5251 28.7703-.3535 1.7415-.7862 3.5806-2.0429 4.8369-3.6561 3.6548-10.3067-.4781-14.952 1.7902-5.7302 2.798-4.627 13.1665-10.7104 15.0787-1.5498.4871-3.2444.249-4.8206.6425-1.5763.3934-3.1417 1.9003-2.6335 3.4434 2.1768-2.0928 5.642-2.7152 8.411-1.511 1.793.7797 5.4234 4.0444 4.4171 6.4005-.8141 1.9063-11.0739.6471-13.0353.6376-9.9254-.0485-19.8507-.0942-29.7761-.1412-19.2993-.0916-38.5987-.1831-57.898-.2747-4.0673-.0193-8.2369-.0215-12.0537 1.384s-7.2678 4.5391-7.8562 8.5636c-.7092 4.85 2.7774 9.6678 1.77 14.4647-.7016 3.3407-3.4007 5.8195-5.6727 8.3672-8.1917 9.186-12.0209 22.1034-10.1588 34.2698-.0592-.386-17.7146.26-19.4265.2878.9826 0 6.1657-120.4601 6.7283-131.452 1.1356-22.186 2.2712-44.3719 3.4068-66.558.5678-11.093 1.1356-22.186 1.7034-33.2789.453-8.8503 3.4108-21.355.6488-29.7729 2.953.1987 6.4667 1.1383 9.6642.8352 2.1602.5299 4.3101 1.1799 6.5303 1.51 2.2998.25 4.6201.48 6.96.6899.1401-.4301.4199-1.3.5601-1.73 5.3101-6.3 7.7598-14.26 9.8501-22.0601-.0103-4.2.02-8.35.0898-12.47-.54-1.5-1.0498-3-1.4199-4.51-1.4399-3.3199-3.5801-6.6899-7.1602-7.85-7.0098-2.5-14.3501-4-21.5698-5.71 1.4302-1.6901-2.3701-8.2101 1.9497-7.78 2.3301-.3201-.5298-3.13-1.1797-4.12.1396-1.6801.25-3.6801 2.0698-4.34 1.9502.48 3.8999 1.0299 5.8701 1.5 2.29.62 4.6099 1.13 6.98 1.4099 2.6201.12 5.3301.9701 7.9902.54 4.9697-6.83 8.1899-14.74 10.0996-22.92.7202-7.8999.4199-16.2999-4.0601-23.09-5.5498-2.96-11.8999-3.75-17.71-6.03-2-.9199-4.1899-.7899-6.3101-.5399-2.2397-2.15-1.5195-5.4301-1.8398-8.1801.79-.09 2.3501-.26 3.1401-.35-.2402-1.54-1.3999-2.59-2.3003-3.73.25-1.38.1304-2.9501 1.3804-3.8301 2 .25 3.9897.61 6.02.5801.3696.01 1.1196.0299 1.4897.0399 2.9902 1.4 6.3301 1.4701 9.54 2.24 5.5898 1.02 6.8003-5.9099 9.3198-9.4299 1.5703-3.6801 3.1504-7.39 3.77-11.36.3403-1.02.6401-2.04.9102-3.04.4302-3.6899 1.96-8.17-.1802-11.53.3003-2.13.4204-4.6499-1.75-5.7899-1.3296-2.62-3.2998-4.8101-5.5898-6.5601-5.3101-1.27-10.7197-2.2-15.8398-4.13-2.3003-.8099-5.0302-.73-7.06-2.04-3.6254-2.3398 1.976-37.761 2.222-42.5197.5325-10.3005.9611-20.6064 1.2858-30.9193.5176-16.316-.8062-18.5979-18.42-21.057-14.9788-2.0913-29.4641 4.5648-43.397 3.345-6.2412-59.2314 5.135-125.4935 7.9037-185.15 2.8899-62.2664 5.7798-124.5327 8.6697-186.7991 5.7798-124.5327 11.5596-249.0654 17.3394-373.598 3.8725-83.4369 7.7449-166.8738 11.6174-250.3107 14.4369 2.1984 29.3786 5.3035 43.0089 10.6689 3.4902 3.7 11.2598 5.72 13.9399.1001 3.1201-2.27 6.48-4.1602 9.8501-6.02 3.2197-1.3 7.1299-1.9301 9.3301-4.8801 6.6997-4.0299 13.7598-7.3799 20.5898-11.1899 2.5498-.21 4.5303-2.03 6.3701-3.64 6.4297-3.48 13.5298-6.14 19.0601-11 1.6396-2.9399.5-6.9.8398-10.22-.0103-3.76-.0298-7.4301-.1099-11.16.0801-.6499.2397-1.97.3198-2.62.75-4.67.6899-9.35.9902-14.0299.7798-4.76.77-9.53.8799-14.3101-1.6802-1.22-3.1401-2.5701-2.3301-4.8101-2.6802.49-5.23.2001-7.48-1.4199-8.4399 1.85-16.1001-3.29-24.3799-3.47-25.1899-5.9601-49.9302-13.66-74.9902-20.1401-2.5.0801-4.4102 2.1801-6.6499 3.1301-4.1401.33-7.1802 3.5-10.4102 5.75-4.75 2.51-9.2197 5.48-13.8398 8.22-2.0601-.16-4.2202.74-5.02 2.76-3.6602 1.98-7.29 4.01-10.8501 6.1499-5.1797 1.2101-9.6797 4.3801-14.1401 7.1901-2.6699-2.0699-3.8799.36-5.3096 2.39-2.3604.24-4.98.95-5.3403 3.71-.4399 13.73-2.5098 27.28-1.9097 41.02.5698 3.5601-2.8604 11.66 2.48 12.63 2.4897.2999 4.8896 1.0599 7.2397 1.92 1.8701 7.59-.1602 15.3899.6802 23.0703 6.1692 56.7992-4.807 119.8424-7.6333 176.9149-3.0844 62.2836-6.1687 124.5671-9.2531 186.8506-6.1687 124.567-12.3375 249.134-18.5062 373.701-2.5483 56.0627-5.5518 112.1089-8.3276 168.1609-2.5543 51.5804-13.1924 109.1322-8.1099 160.4221 3.681 37.147-4.7494 80.3236-6.5231 117.8519-1.1728 24.8143-2.3456 49.6288-3.5188 74.454-.723 15.3849 6.9294 48.2878-7.9746 57.9982-14.7672 9.6212-34.4408.6337-50.0932-1.3296-35.0658-4.3986-32.0027 33.569-31.9523 59.6973.1005 52.1444.1658 104.2889.2487 156.4335.0986 62.0184.1972 124.0367.2958 186.0553.0493 31.009.0975 62.0183.1479 93.0276.0298 18.3555-5.2032 29.8081 11.7987 33.782 32.8614 7.6809 76.9518 0 110.5444 0h374.2973 211.1292 32.3999 171.6104 103.9399 20.33 30.1299 33.0498 155.0503 57.0298 12.75 62.4302 68.9199 103.8999 93.48 20.4902 202.1299 42.9497 161.4502 11.5898 149.1802 34.7202 97.9497 65.5601 73 125.6504 17.7598 88.3896 729.7402 31.4297 463.5703v-273.1001-196.4199-68.53-15.95-32.6-46.64s0-6.85 0-6.8501c0-4.2906 1.3701-11.0388-.1421-15.0189-1.7166-4.5175-9.5779-1.582-12.7073-.9731-.7458.145-1.4931.2894-2.2404.4331zm-2421.9991-154.4813.4497-.8c1.52-.1 2.8701.4601 3.8599 1.67-4.1997-.04-1.5996 4.61.1201 6.26-1.52 1.1801-5.0898 3.58-4.6201-.17.0503-1.74.1401-5.22.1904-6.96zm9.02-4.88c.0601 1.8101.1699 5.4301.2197 7.24-.5498.15-1.6597.4501-2.21.6-.0098-2.63.02-5.21.0903-7.74.4796-.0299 1.4298-.07 1.9-.1zm39.1197-31.78c.6699-1.1 1.3203-2.21 2.1001-3.21-.21-1.79-.5498-3.52-1.0098-5.22-.5103 2.1899-1.25 4.33-2.2002 6.4099l.3003.63c-.6104-.0199-1.8301-.0699-2.4404-.09.3203-3.47.1401-7.11.27-10.5.6602-1.74 1.3999-3.45 3.5-3.59.6401-.23 1.9204-.6801 2.5601-.91-.02 2.98 4.4702 6.4301 1.9702 9.4.48 3.24.6802 6.29.8301 9.66-1.79.4199-3.4502 1.64-5.3301 1.4099-.23-1.3498-.4302-2.6798-.5503-3.9898zm-1.0698-26.09c-.54-.23-1.6299-.71-2.1699-.9399.2202-3.4701.1001-7.1101.1997-10.5l-.2998-.9701c.4399-1.7799 2.1401-2.6699 3.3501-3.88 1.02.2201 2.0498.52 3.0801.89l.71.23c0 5.4 1.6802 10.5801 2.2598 15.9601-.1597 1.46.2402 3.61-1.96 3.14l-.9697.11c-.79-.04-2.3901-.14-3.1899-.1901l-.0303-.98c.0703-.46.2002-1.37.2598-1.83-.3098-.26-.9299-.78-1.2399-1.04zm118.8798 72.84c.6499 1.4601 0 3.48-1.9199 3.0601-1.7397-1.4801-.02-3.5601 1.9199-3.0601zm3.1099-3.11c-1.3198.55-3.8096.22-3.0498-1.75.5103-.28 1.5303-.84 2.04-1.13.6299.83.9702 1.79 1.0098 2.88zm-218.7397 18.77-.3301 1.17c1.3599.0499 2.73.1 4.1304.1599.0098 2.64.9395 7.3601-2.9604 7.12-1.6997.4301-2.7197.15-3.0498-.85.2601-2.78-1.9303-7.7099 2.2099-7.5999zm109.0698-97.76c.25-.27.7402-.8099.9902-1.08-.1602-1.2101-.2803-2.4-.3799-3.5701l.7798-.4299c3.3599-.5801 2.0698 3.38 2.5698 5.45-.4199 2.85-1.4497 6.03-.6597 8.98.0698.48.1997 1.4301.27 1.91-.96.34-1.9302.63-2.9004.86l-.9297.05c-.75-.01-2.2402-.04-2.9902-.05-.1699-3.12-.1099-5.9199 0-8.9.52-1.36.96-2.74 1.4502-4.0699.4503.2099 1.3502.6399 1.7999.8499zm3.54 19.89c.0801 1.79.25 5.37.3403 7.16-.3101 1.49-.7603 2.96-1.2803 4.4099.8599 1.8201 1.2603 3.8401.2402 5.7201-1.0903.26-2.1602.52-3.21.7899-.4702.03-1.4102.0901-1.8804.12l-.9399-.0299c-.0698-.5-.2197-1.5-.29-2 .27-2.67.3203-5.5901.9302-8.1001-.1401-1.98.9902-3 2.8599-3.25.23-2.1599.7701-4.3399 3.23-4.8199zm.23-5.8101c.04.8401.1304 2.51.1802 3.3501l-.21.87c-4.6802 2.0299-3.7099-7.23.0298-4.2201zm107.8301 88.2301c.04-.77.1201-2.3201.1602-3.0901 1.1899-1.0599 2.3101-2.1899 3.4199-3.33 2.9199.95 5.1699 4.2 5.6802 7.22-3.1202.0601-6.2603-.4-9.2603-.7999zm-107.6099-110.46c-3.0703 2.16-5.4902.24-8.29-1.09-.2402-.41-.7197-1.24-.96-1.66 2.5801.48 5.27 1.36 7.75-.1.4902.92.9902 1.87 1.5 2.85zm-102.6802 110.6099c.8003-.1399 2.4102-.4299 3.21-.5699 1.2002 1.4399 1.0801 2.8-.6997 3.64-1.8301-.11-2.23-1.6-2.5103-3.0701zm-9.5498 8.6101c.0601-.5.1802-1.4901.2397-1.9901 1.7803-1.2999 3.6104-2.5499 5.21-4.0599.1304.92.2603 1.86.3901 2.83-1.9096 1.1099-3.4301 3.33-5.8398 3.22zm237.2202-7.6199c-.8501.4399-1.6802.4199-2.4805-.04.0801-1.46.1401-2.89.1699-4.3101-2.5796-.73-1.3696 2.37-2.8896 3.17-.2002-1.49-.3501-2.95-.4702-4.4.0801-.46.2402-1.37.3301-1.83 1.3799-.48 2.8101-.8201 4.3003-.98l-.0205.9099c-.0698 2.5301.7002 4.9701 1.0605 7.4802zm-5.1103-26.3301c1.2202.0601 2.46.16 3.7202.3201l.5898.8199c-.3398 2.47-.5698 5-.6699 7.58l-.8701.25c0-1.48.0103-4.45.02-5.9299-4.52-1.25-1.8101 5.6699-1.3701 8.21.1504.5.4502 1.5.5903 2l-.23.85c-.4702-.01-1.4004-.0399-1.8701-.0599-.27-.49-.8101-1.48-1.0703-1.98-.1997-3.2101-.0596-6.0901-.1196-9.17.4297-.9702.8599-1.9402 1.2798-2.8902zm-2.8897 6.04c-.0903 1.7-.29 5.09-.3804 6.79-.5098.0599-1.52.1899-2.02.25-.5.0599-1.5098.1699-2.0098.22.1602 1.26 1.6899 2.9399.5 4.0499-1.02 1.55-2.0103-.74-2.6104-1.39 0-.4199.0103-1.2599.0103-1.6899.04-1.71.1201-3.39.1201-5.0601-1.04-.6799-2.5503-.8199-3.1099-1.98.0996-1.9099.2295-3.7999.3896-5.6599 1.6802-.3301 3.5703-.9401 5.1401.21l.6699.3099c1.1404 1.26 2.49 2.38 3.3005 3.9501zm-3.3105-10c-.0195.45-.0698 1.37-.0898 1.83-.6499.0801-1.9497.24-2.5996.3201-.0605-.49-.1704-1.4801-.2202-1.9801.7099-1.18 1.9999-1.14 2.9096-.17zm-13.1499-4.93c-1.6396-1.4399-2.9097-6.9099.1704-7l1.04-.22 1.1299-.24c3.0098-.34 3.0698 2.11 2.9697 4.49-.02.73-.0601 2.1801-.0698 2.9-.23.3099-.6899.9199-.9199 1.22l-.0801.9c-1.3003.35-2.6099.64-3.9102.89-.0698-.51-.1997-1.53-.27-2.04zm-13.25 25.71c1.0601-.3 2.1401-.5701 3.2402-.8101.1001 1.26.1499 2.55.1597 3.86-1.3999.12-2.7798.22-4.1499.29.2002-1.1399.4604-2.2499.75-3.3399zm-33.7798-24.01c3.0498.97 8.6899-1.91 9.7002 2.2899-3.3101 1.4601-7-.1599-10.4502.7101l-.3203-.7001c.2705-.5699.8003-1.7199 1.0703-2.2999zm-58.0303-116.7299c-2.1699-1.0901-4.9297-2.39-2.8398-5.05 2.29.2 3.6899 2.3099 5.7998 3.0599.3003-.2999.9004-.9199 1.2002-1.22.8203-.6799 1.8203-1.02 3-1.03.1201 2.7001.1499 5.4301.0703 8.2201l-.9302-.01c-4.3403.9499-6.9101.3099-6.3003-3.97zm-5.9697 26.6499c2.5.13 6.0698-.72 7.3799 2.11.27.52.8301 1.55 1.1001 2.0701-.75 2.53-2.7202 3.67-5.3301 3.21l.21-.83c-1.5601-.74-4.8198-.3201-5.0698-2.3-.0103-.71-.0303-2.11-.04-2.8199.4399-.3602 1.31-1.0803 1.7499-1.4402zm-4.73 5.16c2.1699-.35 1.9302 1.7 2.1401 3.25-1.5103-.23-3.7305.22-3.2402-2.01.2803-.31.8301-.93 1.1001-1.24zm-24.8198 63.8199c-1.4404 2.2201 2.0596 9.89-2.4302 9.1201.9399-2.6101-1.4302-1.0701-2.7603-.7401-.04-.8199-.1099-2.45-.1499-3.2599 1.0698.35 2.1602.7 3.27 1.0599.0303-1.88-1.0498-3.1801-2.52-4.12.5001-2.3 2.4903-3.68 4.5904-2.06zm-9.4101 6.0501c.2998-.24.8799-.7 1.1699-.9399 3.9302.09 1.1099 5.58 1.9399 8.2799l-1.02.1001c-.46-.0701-1.3701-.2301-1.8301-.3101-.52.17-1.5596.51-2.0801.6801.4805 1.0499.8901 2.1399 1.2402 3.2899-.8301.13-2.5.38-3.3398.51.0298-.83.0801-2.48.1099-3.3099-.2798-2.74.1201-5.14 1.1802-7.2101.8896-.32 1.7695-.68 2.6299-1.09zm-13.7002-3.03c1.3501 2.86 2.0103 6.36 3.2202 9.4-.8101.87-1.9502 1.14-3.4399.8.1498-3.3401-.0601-6.9601.2197-10.2zm-4.8199 24.09c.3701.26 1.1099.7699 1.4897 1.0299 1.1401 1.54 1.2402 3.51 1.5903 5.37-.2603 1.37-1.1001 1.9501-2.5103 1.7201l-.9497.08c.0099-2.79.1398-5.52.38-8.2zm-23.0298 17.58c2.2798 1.02 9.1299-5.42 7.6396.42-.6699.12-2.02.35-2.7002.47-.21.9299.9502 2.39-.1499 3-1.75-.37-3.4697-.8-5.1899-1.16-1.1899-.69.1602-1.93.4004-2.73zm-11.1401-13.34c3.5-1.12 2.8501 2.35 3.1001 4.73-.5303.02-1.5903.0599-2.1104.09-.5-1.37-1.0098-2.73-1.4297-4.0699zm-6.29 5.6499c2.2598-.23 2.2397 1.8101 2.46 3.52l-.1899.89c-1.2002-.3199-2.27-.11-3.2202.62-1.0498.5601-2.1001 1.1-3.1401 1.64.4102-1.8199-.3896-4.42 1.4502-5.5599.89-.34 1.7699-.71 2.64-1.1101zm-12-2.5999c.3999 2.9701.6899 6.0601 1.1099 9.12l.0601.9601c-1.6001-.29-2.9897-1.3301-3.2202-2.9701.6-2.47-2.0299-8.54 2.0502-7.11zm-.7002 17.64c1.52 3.26 1.3198 7.09 2 10.63-4.5-1.02-3.0498-7.35-3.0698-10.45z"/></svg>